<?xml version="1.0" encoding="utf-8"?>
<!-- Generator: Adobe Illustrator 28.2.0, SVG Export Plug-In . SVG Version: 6.00 Build 0)  -->
<svg version="1.1" id="Layer_1" xmlns="http://www.w3.org/2000/svg" xmlns:xlink="http://www.w3.org/1999/xlink" x="0px" y="0px"
	 viewBox="0 0 1080 1080" style="enable-background:new 0 0 1080 1080;" xml:space="preserve">
<style type="text/css">
	.st0{fill:#314695;}
	.st1{fill:#FFFFFF;}
</style>
<path class="st0" d="M540.5,1079.1L540.5,1079.1C242.5,1079.1,1,837.6,1,539.6v0C1,241.7,242.5,0.1,540.5,0.1h0
	c298,0,539.5,241.5,539.5,539.5v0C1080,837.6,838.5,1079.1,540.5,1079.1z"/>
<g>
	<path class="st1" d="M725.6,473.6L517.5,682.1c-16.3,16.3-42.7,16.4-59.1,0.1L406,629.8c-12-12-30.2-15.5-45.8-8.9l-227.3,96.5
		l206.6-207.1c31.7-31.8,83.1-31.8,114.8-0.1l4,4c16.3,16.3,42.8,16.3,59.1-0.1l122.5-122.8l64.8-0.1c11.5,0,20.9,9.3,20.9,20.9
		L725.6,473.6z"/>
	<path class="st1" d="M808.8,522.3l-83.2,83.4L725.5,412c0-11.5-9.4-20.9-20.9-20.9l-196.3,0.1l82.5-82.7
		c7.8-7.8,18.4-12.3,29.5-12.3l179.5-0.2c11.5,0,20.9,9.3,20.9,20.8l0.3,175.8C821,503.8,816.6,514.5,808.8,522.3z"/>
</g>
</svg>
