<?xml version="1.0" encoding="utf-8"?>
<!-- Generator: Adobe Illustrator 28.2.0, SVG Export Plug-In . SVG Version: 6.00 Build 0)  -->
<svg version="1.1" id="Layer_1" xmlns="http://www.w3.org/2000/svg" xmlns:xlink="http://www.w3.org/1999/xlink" x="0px" y="0px"
	 viewBox="0 0 942.7 284.7" style="enable-background:new 0 0 942.7 284.7;" xml:space="preserve">
<style type="text/css">
	.st0{fill:#314695;}
	.st1{fill:#48D8F7;}
</style>
<g>
	<g>
		<path class="st0" d="M267.2,80l-93.8,94c-7.3,7.4-19.3,7.4-26.6,0l-23.7-23.6c-5.4-5.4-13.6-7-20.7-4L0,189.9l93.1-93.4
			c14.3-14.3,37.5-14.3,51.8-0.1l1.8,1.8c7.4,7.3,19.3,7.3,26.6,0l55.2-55.4l29.2,0c5.2,0,9.4,4.2,9.4,9.4L267.2,80z"/>
		<path class="st1" d="M304.8,102l-37.5,37.6l0-87.3c0-5.2-4.2-9.4-9.4-9.4l-88.5,0l37.2-37.3c3.5-3.5,8.3-5.5,13.3-5.5L300.7,0
			c5.2,0,9.4,4.2,9.4,9.4l0.2,79.2C310.3,93.6,308.3,98.4,304.8,102z"/>
	</g>
	<g>
		<polygon class="st0" points="278.6,208.8 248.7,168.2 233,168.2 233,258.1 249.4,258.1 249.4,195.9 277.3,234 279.2,234 
			306.9,197 306.9,258.1 323.5,258.1 323.5,168.2 307.8,168.2 		"/>
		<path class="st0" d="M385,204.9c-4.7-5.9-11.2-8.8-19.7-8.8c-8,0-14.9,3.1-20.7,9.2c-5.8,6.1-8.6,13.7-8.6,22.6
			c0,8.9,2.9,16.5,8.6,22.6c5.7,6.1,12.6,9.2,20.7,9.2c8.4,0,15-2.9,19.7-8.8v7.1h15.6v-60.3H385V204.9z M380.2,240.2
			c-3.2,3.2-7.2,4.8-12,4.8c-4.8,0-8.8-1.6-11.9-4.8c-3.1-3.2-4.7-7.3-4.7-12.2c0-5,1.6-9.1,4.7-12.2c3.1-3.2,7.1-4.8,11.9-4.8
			c4.8,0,8.8,1.6,12,4.8c3.2,3.2,4.8,7.3,4.8,12.2C385,232.9,383.4,237,380.2,240.2z"/>
		<path class="st0" d="M435.7,194.6c-2.5,1.5-4.5,3.9-6,7.1v-9.3h-14.8v65.6h15.8v-36.5c0-5,1.4-8.9,4.1-11.6
			c2.7-2.8,6.4-4.2,10.9-4.2h5.7v-14h-3.9C442.9,191.7,439,192.7,435.7,194.6z"/>
		<polygon class="st0" points="520.3,192.5 500.6,192.5 475.8,218.5 475.8,166.8 460,166.8 460,258.1 475.8,258.1 475.8,238.1 
			484.3,228.9 502.7,258.1 520.8,258.1 496.1,218.9 		"/>
		<path class="st0" d="M581.8,200.5c-2.7-3-6-5.3-10-7c-3.9-1.7-8.4-2.5-13.6-2.5c-6.1,0-11.6,1.5-16.6,4.5c-4.9,3-8.8,7-11.7,12.1
			c-2.9,5.1-4.3,11-4.3,17.6c0,6.4,1.4,12.1,4.2,17.4c2.8,5.2,6.8,9.4,11.8,12.4c5.1,3.1,11,4.6,17.7,4.6c4.5,0,8.6-0.7,12.4-2
			c3.7-1.4,7-3.3,9.7-5.7c2.7-2.4,4.7-5.2,6-8.3l-12.8-6.3c-1.4,2.6-3.4,4.6-6,6.1c-2.5,1.5-5.6,2.3-9.2,2.3s-6.8-0.8-9.6-2.5
			c-2.8-1.7-4.9-4.1-6.3-7.2c-0.9-1.9-1.3-4-1.5-6.2h47.1c0.3-0.9,0.5-1.9,0.7-3.1c0.1-1.2,0.2-2.4,0.2-3.5c0-4.4-0.7-8.5-2.2-12.4
			C586.6,206.9,584.6,203.5,581.8,200.5z M549.5,206.5c2.6-1.6,5.5-2.5,8.8-2.5c3.5,0,6.4,0.8,8.9,2.5c2.5,1.7,4.2,4,5.3,6.9
			c0.5,1.3,0.8,2.7,0.9,4.2h-30.7c0.3-1.4,0.5-2.7,1-3.9C545,210.6,546.9,208.2,549.5,206.5z"/>
		<path class="st0" d="M635.7,244.9c-2.6,0-4.7-0.4-6.3-1.2c-1.7-0.8-2.9-2-3.6-3.5c-0.8-1.5-1.1-3.4-1.1-5.5v-28.1h15.1v-14.1
			h-15.1v-15h-15.8v5.1c0,3.2-0.9,5.7-2.6,7.4c-1.8,1.7-4.3,2.5-7.5,2.5h-1.2v14.1h11.3v28.9c0,7.4,2,13.1,6.1,17.2
			c4.1,4.1,9.8,6.1,17.2,6.1c1.2,0,2.5-0.1,4-0.2c1.5-0.2,2.7-0.3,3.9-0.5v-13.5c-0.7,0.1-1.5,0.2-2.2,0.2
			C637,244.9,636.3,244.9,635.7,244.9z"/>
		<path class="st0" d="M680,237.7l-17-45.3h-17l26,65.6l-1.5,3.5c-1.3,2.7-2.8,4.9-4.4,6.6c-1.6,1.7-4.3,2.5-7.9,2.5
			c-1.3,0-2.7-0.1-4.2-0.4c-1.5-0.2-2.8-0.5-3.8-0.7v13.3c1.4,0.6,2.9,1.1,4.6,1.4c1.7,0.3,3.4,0.4,5.2,0.4c4.1,0,7.7-0.8,10.9-2.4
			c3.2-1.6,6-3.8,8.4-6.8c2.4-3,4.5-6.6,6.1-10.9l28.6-72.3h-17.1L680,237.7z"/>
		<path class="st0" d="M768.3,204.9c-4.7-5.9-11.2-8.8-19.7-8.8c-8,0-14.9,3.1-20.7,9.2c-5.8,6.1-8.6,13.7-8.6,22.6
			c0,8.9,2.9,16.5,8.6,22.6c5.7,6.1,12.6,9.2,20.7,9.2c8.4,0,15-2.9,19.7-8.8v7.1h15.6v-60.3h-15.6V204.9z M763.5,240.2
			c-3.2,3.2-7.2,4.8-12,4.8c-4.8,0-8.8-1.6-11.9-4.8c-3.1-3.2-4.7-7.3-4.7-12.2c0-5,1.6-9.1,4.7-12.2c3.1-3.2,7.1-4.8,11.9-4.8
			c4.8,0,8.8,1.6,12,4.8c3.2,3.2,4.8,7.3,4.8,12.2C768.3,232.9,766.7,237,763.5,240.2z"/>
		<path class="st0" d="M843.8,204.9c-4.7-5.9-11.2-8.8-19.7-8.8c-8,0-14.9,3.1-20.7,9.2c-5.8,6.1-8.6,13.7-8.6,22.6
			c0,8.9,2.9,16.5,8.6,22.6c5.7,6.1,12.6,9.2,20.7,9.2c8.4,0,15-2.9,19.7-8.8v7.1h15.6v-60.3h-15.6V204.9z M839,240.2
			c-3.2,3.2-7.2,4.8-12,4.8c-4.8,0-8.8-1.6-11.9-4.8c-3.1-3.2-4.7-7.3-4.7-12.2c0-5,1.6-9.1,4.7-12.2c3.1-3.2,7.1-4.8,11.9-4.8
			c4.8,0,8.8,1.6,12,4.8c3.2,3.2,4.8,7.3,4.8,12.2C843.8,232.9,842.2,237,839,240.2z"/>
		<path class="st0" d="M938.3,207.9c-2.9-5.1-6.9-9.2-11.9-12.3c-5-3.1-10.6-4.6-16.8-4.6c-5.1,0-9.5,1-13.4,3
			c-2.7,1.4-4.9,3.3-6.8,5.4v-32.6h-15.8v91.3h14.8v-7.7c2.1,2.6,4.7,4.8,7.9,6.4c4,1.9,8.3,2.8,13.1,2.8c6.4,0,12-1.5,17-4.5
			c5-3,8.9-7.1,11.8-12.4c2.9-5.2,4.3-11,4.3-17.4C942.7,218.8,941.2,213.1,938.3,207.9z M923.9,235.5c-1.6,3-3.8,5.3-6.6,7
			c-2.8,1.7-6,2.5-9.6,2.5c-3.5,0-6.6-0.8-9.4-2.5c-2.8-1.7-4.9-4-6.5-7c-1.6-3-2.4-6.4-2.4-10.2c0-3.8,0.8-7.2,2.4-10.2
			c1.6-3,3.7-5.4,6.5-7.1c2.8-1.7,5.9-2.5,9.4-2.5c3.6,0,6.8,0.9,9.6,2.6c2.8,1.7,5,4.1,6.6,7c1.6,2.9,2.4,6.3,2.4,10.2
			C926.3,229.1,925.5,232.6,923.9,235.5z"/>
	</g>
</g>
</svg>
