<?xml version="1.0" encoding="utf-8"?>
<!-- Generator: Adobe Illustrator 28.2.0, SVG Export Plug-In . SVG Version: 6.00 Build 0)  -->
<svg version="1.1" id="Layer_1" xmlns="http://www.w3.org/2000/svg" xmlns:xlink="http://www.w3.org/1999/xlink" x="0px" y="0px"
	 viewBox="0 0 1080 1080" style="enable-background:new 0 0 1080 1080;" xml:space="preserve">
<style type="text/css">
	.st0{fill:#FFFFFF;}
	.st1{fill:#314695;}
	.st2{fill:#48D8F7;}
</style>
<path class="st0" d="M540.5,1079.1L540.5,1079.1C242.5,1079.1,1,837.6,1,539.6v0C1,241.7,242.5,0.1,540.5,0.1h0
	c298,0,539.5,241.5,539.5,539.5v0C1080,837.6,838.5,1079.1,540.5,1079.1z"/>
<g>
	<path class="st1" d="M724.7,475.2l-210,210.6c-16.4,16.5-43.1,16.5-59.6,0.1L402,633c-12.2-12.1-30.4-15.7-46.2-9l-229.5,97.4
		l208.6-209.1c32-32.1,83.9-32.1,115.9-0.1l4,4c16.5,16.4,43.2,16.4,59.6-0.1l123.7-124l65.4-0.1c11.6,0,21.1,9.4,21.1,21.1
		L724.7,475.2z"/>
	<path class="st2" d="M808.7,524.5l-84,84.2l-0.1-195.5c0-11.6-9.4-21.1-21.1-21.1l-198.2,0.1l83.2-83.4
		c7.9-7.9,18.6-12.4,29.8-12.4l181.2-0.2c11.6,0,21.1,9.4,21.1,21l0.3,177.4C821,505.8,816.6,516.5,808.7,524.5z"/>
</g>
</svg>
